<svg width="700" height="611" viewBox="0 0 700 611" fill="none" xmlns="http://www.w3.org/2000/svg">
<path d="M636.873 238.084L614.943 226.366L616.584 225.488L638.514 237.208L636.873 238.084Z" fill="#CBCBCB"/>
<path d="M617.744 238.084L616.104 237.208L638.033 225.488L639.674 226.366L617.744 238.084Z" fill="#CBCBCB"/>
<path d="M454.524 147.253L453.465 149.331L459.66 152.524L460.719 150.446L454.524 147.253Z" fill="#CBCBCB"/>
<path d="M582.966 216.087L570.636 209.731L571.694 207.653L584.024 214.009L582.966 216.087ZM558.305 203.375L545.974 197.018L547.033 194.94L559.363 201.297L558.305 203.375ZM533.644 190.662L521.313 184.305L522.371 182.228L534.702 188.584L533.644 190.662ZM508.983 177.949L496.652 171.593L497.71 169.515L510.041 175.871L508.983 177.949ZM484.321 165.237L471.991 158.88L473.049 156.803L485.38 163.159L484.321 165.237Z" fill="#CBCBCB"/>
<path d="M596.355 220.365L595.297 222.442L601.492 225.636L602.55 223.558L596.355 220.365Z" fill="#CBCBCB"/>
<path d="M128.598 303.517C128.598 304.246 128.574 304.969 128.527 305.686C128.264 309.821 127.226 313.868 125.467 317.615C125.453 317.647 125.437 317.676 125.424 317.706C125.342 317.88 125.258 318.054 125.172 318.225C124.649 319.285 124.068 320.315 123.433 321.311C120.534 325.882 116.559 329.665 111.861 332.325C107.163 334.985 101.886 336.439 96.496 336.56L96.821 355.357L101.058 353.113L101.815 354.559L96.8528 357.188L97.4594 392.098L97.4662 392.565L94.1899 393.298L94.1967 392.83L95.2282 336.563C90.8901 336.5 86.6075 335.571 82.6292 333.83C78.6508 332.088 75.0559 329.569 72.0533 326.419C71.8466 326.204 71.6421 325.982 71.4421 325.763L71.4194 325.738C68.9177 322.993 66.8944 319.844 65.4348 316.422C65.4667 316.458 65.5007 316.492 65.5326 316.529C62.234 308.769 62.0102 300.034 64.9073 292.114C67.8043 284.194 73.6027 277.688 81.1142 273.93C81.2278 273.873 81.3437 273.818 81.4574 273.761C88.8877 270.16 97.3914 269.5 105.283 271.91C113.175 274.32 119.878 279.624 124.065 286.773C124.265 287.111 124.458 287.456 124.645 287.803C127.245 292.627 128.604 298.029 128.598 303.517Z" fill="#E5E5E5"/>
<path d="M124.175 317.723C147.959 317.723 167.239 298.327 167.239 274.402C167.239 250.476 147.959 231.08 124.175 231.08C100.391 231.08 81.1108 250.476 81.1108 274.402C81.1108 298.327 100.391 317.723 124.175 317.723Z" fill="#E5E5E5"/>
<path opacity="0.2" d="M92.3778 245.467C88.3609 254.919 87.816 265.501 90.8404 275.32C93.8649 285.139 100.262 293.557 108.888 299.069C117.514 304.58 127.807 306.827 137.928 305.407C148.049 303.987 157.338 298.993 164.136 291.317C161.682 297.092 158.009 302.261 153.372 306.467C148.735 310.672 143.245 313.813 137.281 315.672C131.318 317.531 125.024 318.063 118.836 317.232C112.648 316.402 106.713 314.227 101.443 310.86C96.1728 307.493 91.6936 303.013 88.3154 297.731C84.9372 292.45 82.7409 286.492 81.8787 280.272C81.0164 274.052 81.5087 267.717 83.3217 261.707C85.1346 255.698 88.2247 250.156 92.3778 245.467Z" fill="#252525"/>
<path d="M126.505 395.088L122.107 393.847L122.116 393.371L123.434 321.31L123.5 317.717L123.501 317.613L123.732 305.022L124.065 286.774V286.772L124.292 274.403H124.413L124.645 287.803L124.947 305.245L125.163 317.621V317.712L125.172 318.223V318.225L125.59 342.349L125.634 344.746L126.497 394.608L126.505 395.088Z" fill="#252525"/>
<path d="M131.143 339.408L124.024 343.178L125.016 345.074L132.135 341.304L131.143 339.408Z" fill="#252525"/>
<path d="M682.415 134.199C628.061 130.966 573.542 131.809 519.312 136.721C493.175 139.098 466.621 141.665 440.966 147.4C420.302 152.02 396.319 159.828 383.443 178.015C380.747 181.679 378.93 185.922 378.134 190.41C377.338 194.898 377.585 199.511 378.856 203.887C381.926 214.255 389.563 222.885 397.696 229.644C416.415 245.2 439.641 254.253 460.387 266.612C498.266 289.178 532.933 319.593 555.185 358.23C564.976 375.232 574.29 397.839 563.388 416.573C552.706 434.927 528.862 441.25 509.416 444.232C485.043 447.969 459.938 446.956 435.463 444.863C408.631 442.345 381.948 438.414 355.525 433.085C303.761 423.086 252.469 410.366 199.986 404.582C173.67 401.469 147.133 400.697 120.683 402.276C96.7948 403.897 72.7025 407.697 50.2618 416.362C32.9693 423.039 14.5363 433.141 5.19561 449.989C-3.80844 466.229 -0.296582 484.957 9.50771 499.941C21.3043 517.969 39.6994 530.323 58.8242 539.353C80.5995 549.634 103.89 556.298 127.211 561.965C139.038 564.84 150.93 567.438 162.822 570.023C165.303 570.563 166.363 566.729 163.873 566.188C139.891 560.975 115.839 555.744 92.4525 548.198C70.8105 541.214 48.6627 532.269 30.9399 517.605C16.602 505.741 2.96967 488.413 3.81596 468.712C4.66908 448.852 21.2337 434.985 37.4693 426.449C57.7592 415.782 80.8114 410.587 103.4 407.871C129.264 404.972 155.348 404.615 181.281 406.805C233.64 410.813 284.829 422.811 336.166 433.277C386.038 443.444 437.467 452.858 488.577 450.251C508.835 449.217 530.541 446.297 548.427 436.011C556.617 431.301 564.001 424.659 568.163 416.016C571.913 407.793 573.099 398.619 571.565 389.705C568.664 370.122 557.102 351.963 545.565 336.365C532.919 319.447 518.249 304.16 501.888 290.851C483.931 276.313 464.57 263.625 444.095 252.977C433.237 247.226 422.225 241.696 411.877 235.036C401.956 228.649 392.169 220.964 386.11 210.597C380.87 201.63 379.908 191.395 385.367 182.3C390.887 173.102 400.398 166.686 409.778 161.998C432.376 150.703 458.649 147.679 483.373 144.581C536.462 137.952 589.964 135.268 643.444 136.552C656.443 136.86 669.434 137.401 682.415 138.176C684.957 138.327 684.949 134.349 682.415 134.199V134.199Z" fill="#252525"/>
<path d="M647.934 6.69842L656.144 0.0925146C649.766 -0.61539 647.145 2.88395 646.073 5.65371C641.09 3.57223 635.665 6.30009 635.665 6.30009L652.093 12.2994C651.264 10.0727 649.821 8.12972 647.934 6.69842Z" fill="#252525"/>
<path d="M608.088 27.611L616.299 21.0051C609.92 20.2972 607.3 23.7965 606.227 26.5663C601.244 24.4848 595.82 27.2127 595.82 27.2127L612.247 33.212C611.418 30.9853 609.976 29.0423 608.088 27.611Z" fill="#252525"/>
<path d="M647.934 60.7233L656.144 54.1174C649.766 53.4095 647.145 56.9088 646.073 59.6786C641.09 57.5971 635.665 60.325 635.665 60.325L652.093 66.3243C651.264 64.0975 649.821 62.1546 647.934 60.7233Z" fill="#252525"/>
<path d="M524.848 70.51C538.51 70.51 549.585 59.3689 549.585 45.6256C549.585 31.8823 538.51 20.7412 524.848 20.7412C511.187 20.7412 500.112 31.8823 500.112 45.6256C500.112 59.3689 511.187 70.51 524.848 70.51Z" fill="#0C8BD5"/>
<path d="M602.418 122.306H481.067C480.915 122.308 480.763 122.296 480.613 122.27L538.008 22.2677C538.358 21.6448 538.866 21.1265 539.481 20.7659C540.095 20.4053 540.794 20.2153 541.505 20.2153C542.217 20.2153 542.915 20.4053 543.53 20.7659C544.144 21.1265 544.652 21.6448 545.003 22.2677L583.52 89.3746L585.364 92.5853L602.418 122.306Z" fill="#2E3293"/>
<path d="M669.981 122.308H565.024L585.362 92.5899L586.825 90.4483L613.327 51.7201C613.796 51.1275 614.383 50.6408 615.051 50.2917C615.719 49.9426 616.452 49.7388 617.204 49.6937C617.955 49.6485 618.708 49.763 619.412 50.0297C620.117 50.2964 620.757 50.7093 621.293 51.2416C621.43 51.3928 621.557 51.5526 621.674 51.7201L669.981 122.308Z" fill="#2E3293"/>
<path d="M496.849 351.664C508.352 357.447 515.354 365.086 515.354 373.464C515.354 391.511 482.891 406.142 442.845 406.142C425.434 406.142 409.461 403.374 396.962 398.764C410.238 405.44 429.51 409.643 450.966 409.643C491.012 409.643 523.475 395.012 523.475 376.965C523.475 366.764 513.099 357.657 496.849 351.664Z" fill="#F1F1F1"/>
<path d="M522.434 364.061C535.413 370.587 543.315 379.206 543.315 388.659C543.315 409.024 506.684 425.533 461.497 425.533C441.851 425.533 423.828 422.41 409.724 417.208C424.704 424.741 446.45 429.483 470.661 429.483C515.848 429.483 552.479 412.975 552.479 392.61C552.479 381.099 540.771 370.823 522.434 364.061Z" fill="#F1F1F1"/>
<path d="M487.057 357.125C495.161 361.199 500.095 366.58 500.095 372.483C500.095 385.198 477.223 395.505 449.01 395.505C438.019 395.648 427.084 393.89 416.684 390.308C426.038 395.011 439.615 397.972 454.732 397.972C482.945 397.972 505.816 387.665 505.816 374.95C505.816 367.763 498.506 361.347 487.057 357.125Z" fill="#F1F1F1"/>
<path d="M373.196 354.792C373.196 354.792 374.976 380.976 426.023 380.976C477.069 380.976 492.31 354.792 492.31 354.792H373.196Z" fill="#252525"/>
<path d="M445.651 286.091C438.281 280.459 429.032 277.914 419.839 278.988C428.054 280.98 435.309 285.82 440.331 292.657C445.353 299.494 447.821 307.892 447.301 316.377C446.782 324.862 443.308 332.892 437.49 339.057C431.672 345.223 423.881 349.13 415.485 350.093C423.516 352.043 431.97 351.152 439.425 347.57C446.88 343.988 452.882 337.933 456.422 330.423C459.961 322.913 460.823 314.407 458.861 306.333C456.9 298.259 452.235 291.111 445.651 286.091Z" fill="#252525"/>
<path d="M428.923 274.263H425.443V357.604H428.923V274.263Z" fill="#252525"/>
<path d="M657.656 212.34L657.637 212.308L657.59 210.272L668.494 194.347L657.603 208.748L657.564 209.179L657.191 192.901L666.609 176.39L657.165 190.041L657.263 156.318L657.263 156.206L657.26 156.316L656.635 182.895L648.051 172.099L656.607 185.185L656.419 199.745L648.521 185.535L656.39 201.885L656.286 209.981L655.997 232.411L655.976 234.087C656.704 234.093 657.424 234.081 658.136 234.051L657.642 212.506L657.656 212.34Z" fill="#CBCBCB"/>
<path d="M605.449 219.343L605.431 219.311L605.384 217.275L616.287 201.35L605.397 215.751L605.357 216.182L604.985 199.904L614.402 183.393L604.958 197.044L605.057 163.321L605.056 163.209L605.053 163.319L604.428 189.898L595.845 179.102L604.4 192.187L604.213 206.747L596.314 192.537L604.184 208.888L604.079 216.984L603.791 239.414L603.77 241.09C604.497 241.096 605.217 241.083 605.93 241.054L605.436 219.509L605.449 219.343Z" fill="#CBCBCB"/>
<path d="M630.972 197.168L630.954 197.136L630.907 195.1L641.81 179.175L630.92 193.576L630.881 194.007L630.508 177.729L639.926 161.218L630.481 174.87L630.58 141.146L630.579 141.034L630.576 141.145L629.951 167.723L621.368 156.927L629.923 170.013L629.736 184.573L621.837 170.363L629.707 186.713L629.602 194.809L629.314 217.239L629.293 218.915C630.02 218.921 630.74 218.909 631.453 218.879L630.959 197.334L630.972 197.168Z" fill="#CBCBCB"/>
<path d="M199.794 584.705C207.483 584.705 213.716 578.434 213.716 570.7C213.716 562.965 207.483 556.695 199.794 556.695C192.105 556.695 185.872 562.965 185.872 570.7C185.872 578.434 192.105 584.705 199.794 584.705Z" fill="#2E3293"/>
</svg>
